<?xml version="1.0" standalone="no"?>
<!DOCTYPE svg PUBLIC "-//W3C//DTD SVG 20010904//EN"
 "http://www.w3.org/TR/2001/REC-SVG-20010904/DTD/svg10.dtd">
<svg version="1.0" xmlns="http://www.w3.org/2000/svg"
 width="1024.000000pt" height="1024.000000pt" viewBox="0 0 1024.000000 1024.000000"
 preserveAspectRatio="xMidYMid meet">

<g transform="translate(0.000000,1024.000000) scale(0.100000,-0.100000)"
fill="#000000" stroke="none">
<path d="M7360 7419 c-114 -62 -187 -158 -246 -324 -57 -160 -65 -163 -39 -15
16 92 56 222 87 284 l20 39 -29 -7 c-120 -30 -217 -161 -248 -337 -8 -45 -18
-85 -21 -88 -4 -3 -4 72 -1 167 3 125 2 172 -7 172 -28 0 -113 -79 -140 -130
-26 -47 -31 -70 -36 -155 l-5 -100 -38 112 c-20 62 -37 122 -37 133 0 30 -12
25 -68 -25 -85 -77 -100 -149 -52 -259 10 -25 18 -46 16 -46 -1 0 -36 43 -77
95 -41 52 -77 95 -80 95 -12 0 -90 -91 -100 -117 -14 -37 3 -81 54 -140 27
-31 33 -42 17 -30 -166 118 -171 119 -225 55 -57 -67 -51 -100 26 -153 52 -37
43 -42 -18 -12 -26 13 -65 30 -86 37 -37 11 -40 11 -69 -16 -34 -33 -58 -75
-58 -102 0 -13 16 -26 50 -42 27 -13 49 -25 47 -26 -2 -2 -38 4 -81 12 -77 16
-78 16 -102 -7 -28 -26 -69 -107 -59 -117 3 -4 21 -12 38 -19 l32 -11 -47 -1
c-26 -1 -58 -6 -71 -12 -25 -11 -67 -75 -67 -101 0 -16 50 -48 77 -49 17 0 17
-1 0 -8 -16 -6 5 -30 122 -143 221 -214 360 -320 550 -417 83 -42 285 -121
312 -121 5 0 -13 33 -40 74 -110 168 -142 337 -94 491 53 167 145 260 367 371
113 56 190 124 229 201 27 53 39 112 57 275 5 53 22 134 36 180 26 81 102 243
150 319 38 60 33 62 -46 18z m-205 -476 c-6 -34 -60 -143 -71 -143 -2 0 -4 25
-4 55 0 49 4 58 35 90 20 19 38 35 41 35 4 0 3 -17 -1 -37z m-138 -74 c-5 -39
-63 -149 -79 -149 -14 0 -8 81 8 116 14 30 57 74 72 74 2 0 2 -18 -1 -41z
m-134 -56 c-7 -46 -33 -97 -72 -143 l-30 -35 -1 43 c0 57 23 111 63 144 17 15
35 28 39 28 4 0 4 -17 1 -37z m-153 -61 c0 -34 -37 -115 -70 -152 l-40 -45 0
48 c0 58 18 96 62 131 34 27 48 32 48 18z m-171 -123 c-9 -39 -76 -148 -91
-149 -15 0 -8 86 10 118 15 28 65 72 83 72 4 0 3 -18 -2 -41z m-152 -104 c-7
-45 -67 -131 -79 -113 -18 29 -8 68 28 108 45 50 58 51 51 5z"/>
<path d="M7873 7306 c-82 -19 -143 -47 -217 -100 -57 -41 -117 -96 -104 -96 3
0 36 14 73 31 38 18 98 36 140 42 64 9 84 8 162 -11 48 -12 111 -34 138 -49
148 -79 142 -77 195 -64 44 11 52 10 92 -10 43 -22 42 -37 -2 -21 -15 6 -41 4
-73 -6 -60 -17 -103 -10 -155 27 -94 69 -186 96 -286 85 -215 -24 -361 -154
-416 -370 -46 -181 -14 -310 139 -560 80 -128 106 -206 106 -309 -1 -70 -5
-89 -35 -153 -94 -204 -413 -362 -730 -362 -178 0 -322 36 -515 130 -226 109
-358 207 -642 476 -272 259 -378 329 -570 376 -317 77 -820 -41 -1533 -362
-458 -206 -819 -320 -1063 -337 -57 -4 -86 -10 -84 -17 2 -6 34 -22 73 -35
125 -43 352 -39 593 10 97 20 148 24 96 8 -66 -21 -379 -80 -530 -100 -88 -11
-234 -24 -325 -28 l-165 -6 48 -29 c197 -118 611 -108 1086 24 114 32 151 38
86 14 -165 -62 -618 -181 -800 -212 -58 -9 -105 -20 -105 -23 0 -8 74 -36 130
-48 66 -15 252 -13 357 4 130 21 343 77 496 131 146 51 181 61 157 46 -20 -14
-581 -235 -650 -257 -76 -24 -80 -31 -20 -44 114 -25 284 -8 454 46 95 29 362
134 525 204 62 28 115 48 117 46 2 -1 -154 -81 -346 -177 -286 -142 -347 -176
-332 -185 9 -5 69 -10 132 -10 111 1 118 2 215 42 55 22 195 87 310 143 347
169 343 160 -20 -40 -143 -79 -275 -153 -292 -165 l-33 -22 23 -20 c32 -30 82
-53 114 -53 42 0 125 42 553 279 85 47 120 64 120 56 0 -2 -107 -67 -237 -146
-289 -173 -361 -219 -368 -236 -14 -38 75 -109 122 -98 16 3 75 35 133 70 292
180 522 316 526 312 3 -2 -19 -19 -48 -38 -136 -85 -419 -277 -476 -321 -34
-27 -65 -61 -68 -74 -8 -31 21 -79 63 -105 l31 -20 189 127 c103 70 238 162
298 204 257 179 248 158 -15 -35 -230 -168 -330 -255 -367 -319 -28 -48 -3
-139 46 -165 17 -9 35 2 131 82 62 50 147 119 190 152 43 33 138 107 212 165
135 107 158 124 158 117 0 -2 -76 -70 -169 -151 -250 -216 -355 -337 -382
-439 -11 -38 -10 -51 4 -89 10 -25 28 -54 40 -66 l22 -21 324 320 c178 175
328 319 333 319 6 0 -25 -37 -68 -83 -176 -186 -310 -361 -370 -483 -61 -123
-57 -238 13 -315 19 -21 38 -39 42 -39 4 0 31 42 61 93 68 115 224 333 371
520 169 214 174 217 45 24 -101 -151 -217 -382 -246 -487 -45 -166 -19 -301
76 -400 29 -30 55 -52 58 -49 3 3 21 62 40 130 56 204 136 392 278 651 104
191 112 196 30 18 -17 -36 -47 -115 -67 -175 -96 -286 -100 -523 -12 -689 35
-66 124 -164 172 -188 l30 -16 0 192 c1 254 25 415 106 704 18 62 34 111 36
108 2 -2 -6 -50 -19 -107 -19 -89 -22 -134 -23 -309 0 -183 2 -214 23 -290 45
-165 125 -293 247 -393 59 -49 171 -114 181 -105 2 2 -12 46 -32 98 -82 222
-122 434 -130 690 -3 97 -1 199 4 230 l10 55 1 -68 c9 -528 262 -953 650
-1091 41 -15 76 -25 78 -22 2 2 -29 53 -70 114 -159 236 -280 523 -347 824
-28 123 -24 130 9 18 146 -497 463 -834 887 -940 46 -12 91 -20 100 -18 10 2
-15 30 -71 78 -207 179 -404 439 -543 716 -76 153 -89 198 -20 71 81 -148 170
-266 282 -374 200 -192 415 -305 649 -341 32 -5 56 -6 55 -2 -2 4 -46 42 -98
85 -129 106 -350 329 -440 445 -182 235 -333 505 -410 735 -47 142 -49 162
-16 175 40 15 40 29 0 78 -40 48 -25 43 36 -15 l35 -33 97 44 c331 149 659
381 840 593 152 179 228 355 236 548 7 176 -23 271 -152 478 -82 133 -108 196
-109 268 -1 104 53 177 157 209 32 10 65 10 168 0 107 -11 146 -11 236 0 59 8
132 14 162 14 30 -1 190 -26 355 -57 352 -67 836 -150 841 -144 16 15 -668
294 -996 406 l-125 43 -80 82 c-96 98 -168 147 -278 188 -68 26 -100 31 -187
34 -66 2 -128 -2 -167 -10z m894 -461 c315 -98 540 -173 522 -174 -8 -1 -199
50 -425 113 -225 62 -418 116 -429 119 -11 2 13 5 52 6 63 1 100 -8 280 -64z"/>
<path d="M3846 4703 c-62 -33 -305 -125 -416 -158 -149 -43 -413 -101 -560
-124 l-115 -18 55 -6 c356 -43 699 -25 1015 54 113 29 149 45 214 99 24 20 24
21 6 54 -13 24 -30 37 -55 45 -21 6 -54 24 -75 41 -21 16 -38 30 -39 30 0 -1
-14 -8 -30 -17z"/>
<path d="M4050 4434 c-234 -172 -571 -335 -795 -384 -27 -6 -95 -17 -150 -24
-138 -19 -308 -86 -710 -281 -568 -276 -769 -370 -850 -400 -50 -18 -126 -50
-170 -72 -44 -22 -91 -44 -105 -48 -14 -4 -35 -16 -47 -25 -12 -10 -56 -28
-98 -41 -41 -13 -75 -27 -75 -31 0 -17 76 -19 171 -3 114 18 122 21 599 237
275 125 376 170 760 333 350 148 396 165 543 196 87 19 256 68 437 129 310
104 499 155 690 186 63 10 117 19 118 20 2 1 -21 33 -52 70 -59 71 -86 119
-86 152 0 26 -4 28 -60 35 -43 6 -49 4 -120 -49z"/>
<path d="M3725 4379 c-38 -10 -104 -22 -145 -25 -53 -5 -96 -17 -149 -41 -108
-49 -158 -61 -351 -89 -96 -13 -197 -32 -225 -41 -84 -27 -345 -160 -985 -503
-315 -169 -408 -216 -465 -237 -24 -9 -101 -18 -190 -23 -117 -6 -163 -12
-207 -29 -32 -13 -58 -27 -58 -32 0 -5 45 -9 100 -9 55 0 100 -4 100 -8 0 -15
-94 -42 -180 -51 -47 -5 -98 -15 -115 -21 -16 -6 -37 -13 -45 -16 -24 -9 9
-24 53 -24 57 0 44 -16 -25 -30 -83 -16 -208 -53 -208 -62 0 -13 127 -19 200
-9 91 12 181 39 320 96 114 46 369 162 385 176 17 13 529 279 790 411 406 204
583 277 720 298 253 38 373 74 570 171 235 116 262 139 110 98z"/>
</g>
</svg>
